# xmcd CD database file
#
# Track frame offsets:
#	150
#	16471
#	32434
#	49475
#	73069
#	89151
#	114188
#	137934
#	163141
#	169693
#	186135
#	202182
#	219303
#	243138
#	259547
#	284679
#	308510
#	333819
#
# Disc length: 4534 seconds
#
# Revision: 0
# Processed by: cddbd v1.5.1PL2 Copyright (c) Steve Scherf et al.
# Submitted via: CDex 1.51
#
DISCID=0711b412
DTITLE=John Lewis - Orchestra U.S.A.
DYEAR=2004
DGENRE=Jazz
TTITLE0=Three Little Feelings (Part 1)
TTITLE1=Three Little Feelings (Part 2)
TTITLE2=Three Little Feelings (Part 3)
TTITLE3=Milesign
TTITLE4=Milano
TTITLE5=Natural Affection
TTITLE6=Donnies Theme
TTITLE7=General Enconter
TTITLE8=The Star Spangled Banner
TTITLE9=Three Little Feelings (Part 1) v. mono
TTITLE10=Three Little Feelings (Part 2) v. mono
TTITLE11=Three Little Feelings (Part 3) v. mono
TTITLE12=Milesign v. mono
TTITLE13=Milano v. mono
TTITLE14=Natural Affection v. mono
TTITLE15=Donnies Theme v. mono
TTITLE16=General Enconter v. mono
TTITLE17=The Star Spangled Banner v. mono
EXTD=YEAR: 2004
EXTT0=
EXTT1=
EXTT2=
EXTT3=
EXTT4=
EXTT5=
EXTT6=
EXTT7=
EXTT8=
EXTT9=
EXTT10=
EXTT11=
EXTT12=
EXTT13=
EXTT14=
EXTT15=
EXTT16=
EXTT17=
PLAYORDER=
